<svg width="454" height="920" viewBox="0 0 454 920" fill="none" xmlns="http://www.w3.org/2000/svg">
<path d="M17.9673 2.28465L2.30123 17.5876C2.1086 17.7758 2 18.0336 2 18.3029V898.929C2 899.481 2.44772 899.929 3 899.929H34.6596C34.8892 899.929 35.1118 900.008 35.29 900.153L55.7635 916.776C55.9417 916.921 56.1643 917 56.3938 917H232.886C233.147 917 233.398 916.898 233.585 916.715L245.065 905.501C245.252 905.319 245.503 905.217 245.764 905.217H378.166C378.427 905.217 378.678 905.319 378.865 905.501L390.345 916.715C390.532 916.898 390.783 917 391.044 917H439.53C439.791 917 440.042 916.898 440.228 916.715L451.699 905.511C451.891 905.323 452 905.065 452 904.796L452 24.4606C452 23.9083 451.552 23.4606 451 23.4606H403.935C403.625 23.4606 403.333 23.317 403.143 23.0718L390.937 7.26617C390.747 7.02098 390.455 6.8774 390.145 6.8774H378.573H245.551C245.423 6.8774 245.295 6.85264 245.176 6.80449L233.474 2.07291C233.355 2.02476 233.228 2 233.099 2H18.6661C18.4049 2 18.1542 2.10216 17.9673 2.28465Z" fill="#001745" fill-opacity="0.9" stroke="#44A8F4"/>
<path d="M2 28.5V17.9279C2 17.6546 2.11186 17.3932 2.30956 17.2045L17.95 2.27661C18.136 2.09906 18.3833 2 18.6404 2H29.7648" stroke="#1EF1FF" stroke-width="4"/>
<path d="M452 891V905.572C452 905.845 451.888 906.107 451.69 906.295L439.717 917.723C439.531 917.901 439.284 918 439.027 918H423.711" stroke="#1EF1FF" stroke-width="4"/>
<path d="M378.211 909H249.617C249.36 909 249.113 909.099 248.927 909.277L241.069 916.777C240.416 917.4 240.857 918.5 241.759 918.5H370.353C370.61 918.5 370.857 918.401 371.043 918.223L378.901 910.723C379.554 910.1 379.113 909 378.211 909Z" fill="#1EF1FF"/>
<path d="M242.529 2H378.123C378.242 2 378.361 2.02146 378.473 2.06335L383.821 4.06335C384.865 4.45349 384.585 6 383.471 6H247.877C247.758 6 247.639 5.97854 247.527 5.93665L242.179 3.93665C241.135 3.54651 241.415 2 242.529 2Z" fill="#1EF1FF"/>
</svg>
